<?xml version="1.0" encoding="utf-8"?>
<!-- Generator: Adobe Illustrator 22.0.1, SVG Export Plug-In . SVG Version: 6.00 Build 0)  -->
<svg version="1.1" id="Слой_1" xmlns="http://www.w3.org/2000/svg" xmlns:xlink="http://www.w3.org/1999/xlink" x="0px" y="0px"
	 width="15.6px" height="15.6px" viewBox="0 0 4.6 4.6" style="enable-background:new 0 0 4.6 4.6;" xml:space="preserve">
<style type="text/css">
	.st0{fill:#FFFFFF;}
</style>
<path class="st0" d="M3.2,0.6c0.2,0,0.4,0.1,0.5,0.2c0.5,0.3,0.7,1,0.4,1.6C3.9,2.7,3.1,3.4,2.3,4c0,0,0,0,0,0c0,0,0,0,0,0
	C1.5,3.4,0.6,2.7,0.4,2.3C0.1,1.7,0.3,1,0.8,0.7C1,0.6,1.1,0.6,1.3,0.6c0.3,0,0.6,0,0.8,0.3l0.2,0.2l0.2-0.2
	C2.7,0.6,2.9,0.6,3.2,0.6"/>
</svg>
