<?xml version="1.0" encoding="iso-8859-1"?>
<!-- Generator: Adobe Illustrator 19.0.0, SVG Export Plug-In . SVG Version: 6.00 Build 0)  -->
<svg xmlns="http://www.w3.org/2000/svg" xmlns:xlink="http://www.w3.org/1999/xlink" version="1.1" id="Capa_1" x="0px" y="0px" viewBox="0 0 512 512" style="enable-background:new 0 0 512 512;" xml:space="preserve" width="512px" height="512px">
<g>
	<g>
		<path d="M503.467,418.133H8.533c-4.71,0-8.533,3.814-8.533,8.533c0,32.93,26.795,59.733,59.733,59.733h392.533    c32.93,0,59.733-26.803,59.733-59.733C512,421.948,508.186,418.133,503.467,418.133z M452.267,469.333H59.733    c-20.608,0-37.845-14.686-41.805-34.133h476.143C490.112,454.647,472.875,469.333,452.267,469.333z" fill="#FFFFFF"/>
	</g>
</g>
<g>
	<g>
		<rect x="68.267" y="349.867" width="238.933" height="17.067" fill="#FFFFFF"/>
	</g>
</g>
<g>
	<g>
		<path d="M443.733,230.4H68.267c-4.71,0-8.533,3.823-8.533,8.533v187.733c0,4.719,3.823,8.533,8.533,8.533h375.467    c4.719,0,8.533-3.814,8.533-8.533V238.933C452.267,234.223,448.452,230.4,443.733,230.4z M435.2,418.133H76.8V247.467h358.4    V418.133z" fill="#FFFFFF"/>
	</g>
</g>
<g>
	<g>
		<path d="M384,281.6h-42.667c-4.719,0-8.533,3.814-8.533,8.533V358.4c0,4.71-3.823,8.533-8.533,8.533s-8.533-3.823-8.533-8.533    v-51.2c0-14.114-11.486-25.6-25.6-25.6s-25.6,11.486-25.6,25.6c0,4.71-3.823,8.533-8.533,8.533c-4.702,0-8.533-3.823-8.533-8.533    v-17.067c0-4.719-3.823-8.533-8.533-8.533H68.267v17.067H230.4v8.533c0,14.114,11.486,25.6,25.6,25.6s25.6-11.486,25.6-25.6    c0-4.71,3.823-8.533,8.533-8.533s8.533,3.823,8.533,8.533v51.2c0,14.114,11.486,25.6,25.6,25.6s25.6-11.486,25.6-25.6v-59.733H384    c4.71,0,8.533,3.823,8.533,8.533v119.467H409.6V307.2C409.6,293.086,398.114,281.6,384,281.6z" fill="#FFFFFF"/>
	</g>
</g>
<g>
	<g>
		<path d="M273.067,102.4c-23.526,0-42.667,19.14-42.667,42.667c0,23.526,19.14,42.667,42.667,42.667    c23.526,0,42.667-19.14,42.667-42.667C315.733,121.54,296.593,102.4,273.067,102.4z M273.067,170.667    c-14.114,0-25.6-11.486-25.6-25.6s11.486-25.6,25.6-25.6c14.114,0,25.6,11.486,25.6,25.6    C298.667,159.181,287.181,170.667,273.067,170.667z" fill="#FFFFFF"/>
	</g>
</g>
<g>
	<g>
		<path d="M204.8,25.6v17.067c32.939,0,59.733,26.795,59.733,59.733v8.533H281.6V102.4C281.6,60.058,247.142,25.6,204.8,25.6z" fill="#FFFFFF"/>
	</g>
</g>
<g>
	<g>
		<path d="M290.133,68.267h-42.667c-2.116,0-4.156,0.785-5.726,2.21L62.541,232.61l11.452,12.655L250.752,85.333h39.381    c79.991,0,145.067,65.075,145.067,145.067v8.533h17.067V230.4C452.267,140.996,379.537,68.267,290.133,68.267z" fill="#FFFFFF"/>
	</g>
</g>
<g>
	<g>
		<rect x="341.333" y="349.867" width="59.733" height="17.067" fill="#FFFFFF"/>
	</g>
</g>
<g>
	<g>
		<rect x="341.333" y="162.133" width="17.067" height="34.133" fill="#FFFFFF"/>
	</g>
</g>
<g>
	<g>
		<rect x="145.067" y="196.267" width="34.133" height="17.067" fill="#FFFFFF"/>
	</g>
</g>
<g>
	<g>
		
			<rect x="200.507" y="165.364" transform="matrix(0.7071 -0.7071 0.7071 0.7071 -68.5043 201.5504)" width="17.066" height="36.207" fill="#FFFFFF"/>
	</g>
</g>
<g>
	<g>
		<rect x="324.267" y="119.467" width="34.133" height="17.067" fill="#FFFFFF"/>
	</g>
</g>
<g>
	<g>
		
			<rect x="378.705" y="183.463" transform="matrix(0.7071 -0.7071 0.7071 0.7071 -19.5393 336.8201)" width="36.207" height="17.067" fill="#FFFFFF"/>
	</g>
</g>
<g>
	<g>
		<rect x="290.133" y="196.267" width="34.133" height="17.067" fill="#FFFFFF"/>
	</g>
</g>
<g>
</g>
<g>
</g>
<g>
</g>
<g>
</g>
<g>
</g>
<g>
</g>
<g>
</g>
<g>
</g>
<g>
</g>
<g>
</g>
<g>
</g>
<g>
</g>
<g>
</g>
<g>
</g>
<g>
</g>
</svg>
