<?xml version="1.0" encoding="iso-8859-1"?>
<!-- Generator: Adobe Illustrator 19.0.0, SVG Export Plug-In . SVG Version: 6.00 Build 0)  -->
<svg xmlns="http://www.w3.org/2000/svg" xmlns:xlink="http://www.w3.org/1999/xlink" version="1.1" id="Capa_1" x="0px" y="0px" viewBox="0 0 512 512" style="enable-background:new 0 0 512 512;" xml:space="preserve" width="512px" height="512px">
<g>
	<g>
		<path d="M457.506,461.526c-3.63-12.898-17.174-20.864-30.512-17.108l-10.647,2.997l-18.271-64.903    c16.776-40.855,15.699-38.151,16.013-39.143c1.075-3.402,5.166-18.639-0.45-38.592L384.41,200.939    c-3.249-11.539-13.882-19.597-25.858-19.597c-4.937,0-1.13-0.724-72.562,19.383c-14.264,4.016-22.6,18.887-18.585,33.15    l29.227,103.836c5.161,18.339,16.034,30.624,20.6,33.764l-0.043,0.059l33.27,24.381l18.27,64.902l-9.322,2.624    c-13.127,3.695-20.8,17.382-17.106,30.511c2.99,10.62,12.777,18.036,23.8,18.037c4.582,0,0.323,0.869,74.297-19.954    C453.526,488.34,461.201,474.654,457.506,461.526z M326.235,359.566c-5.297-4.554-11.866-14.19-15.165-25.92l-8.536-30.328    l25.795-7.261c3.987-1.122,6.31-5.264,5.188-9.253c-1.123-3.986-5.263-6.31-9.253-5.187l-25.795,7.261l-16.627-59.069    c-1.774-6.301,1.909-12.872,8.21-14.646c70.364-19.806,66.169-18.821,68.497-18.821c5.287,0,9.983,3.561,11.419,8.661    l16.628,59.069l-28.617,8.055c-3.987,1.122-6.31,5.264-5.188,9.251c1.123,3.987,5.264,6.311,9.253,5.187l28.617-8.056l8.537,30.33    c4.673,16.602,0.953,28.883,0.586,30.02c-5.311,12.937-5.233,12.745-14.844,36.149l-27.186,7.652L326.235,359.566z     M436.332,477.596c-72.96,20.537-68.322,19.393-70.233,19.393c-11.153,0-13.499-16.047-2.629-19.107l16.542-4.656    c3.982-1.121,6.31-5.265,5.187-9.253l-19.158-68.062l18.737-5.274c20.685,73.48,18.978,70.479,22.711,72.572    c1.736,0.973,3.787,1.216,5.7,0.677c19.486-5.484,18.73-5.398,20.513-5.398C444.856,458.488,447.204,474.535,436.332,477.596z" fill="#FFFFFF"/>
	</g>
</g>
<g>
	<g>
		<path d="M187.944,136.497l-26.499-27.162c-2.892-2.964-7.641-3.024-10.606-0.131c-2.965,2.893-3.023,7.641-0.131,10.607    c28.622,29.338,27.653,29.424,31.869,29.424C189.169,149.234,192.586,141.255,187.944,136.497z" fill="#FFFFFF"/>
	</g>
</g>
<g>
	<g>
		<path d="M361.164,109.203c-2.966-2.894-7.715-2.833-10.606,0.13l-26.501,27.162c-2.892,2.965-2.834,7.713,0.131,10.607    c2.962,2.891,7.711,2.836,10.606-0.13l26.501-27.162C364.188,116.845,364.129,112.096,361.164,109.203z" fill="#FFFFFF"/>
	</g>
</g>
<g>
	<g>
		<path d="M254.811,81.371c-4.143,0-7.5,3.358-7.5,7.5v36.281c0,4.142,3.357,7.5,7.5,7.5c4.143,0,7.5-3.358,7.5-7.5V88.871    C262.311,84.729,258.954,81.371,254.811,81.371z" fill="#FFFFFF"/>
	</g>
</g>
<g>
	<g>
		<path d="M188.019,54.3c-22.339,11.723-13.811,45.582,11.251,45.582c10.156,0,19.796-6.489,23.064-16.988    C228.693,62.477,207.144,44.259,188.019,54.3z M199.271,84.882c-9.513,0-12.776-12.843-4.28-17.299    c4.522-2.375,10.043-0.607,12.386,3.86C210.603,77.592,206.088,84.882,199.271,84.882z" fill="#FFFFFF"/>
	</g>
</g>
<g>
	<g>
		<circle cx="238.112" cy="18.06" r="10.565" fill="#FFFFFF"/>
	</g>
</g>
<g>
	<g>
		<circle cx="120.126" cy="143.387" r="10.565" fill="#FFFFFF"/>
	</g>
</g>
<g>
	<g>
		<circle cx="398.48" cy="151.998" r="10.565" fill="#FFFFFF"/>
	</g>
</g>
<g>
	<g>
		<path d="M358.009,23.052l-12.319-3.786L341.822,6.96c-2.496-7.893-12.932-9.445-17.663-2.728l-7.406,10.548l-12.977-0.125    c-8.204,0-12.916,9.381-7.975,15.956l7.742,10.305l-4.099,12.218c-2.647,7.889,4.953,15.264,12.682,12.598l12.191-4.178    c11.058,8.195,12.134,9.635,16.287,9.635c5.421,0,10.058-4.39,9.969-10.127l-0.205-12.888l10.489-7.469    C367.576,35.931,365.921,25.487,358.009,23.052z M335.411,51.102c-9.136-6.772-7.562-6.618-18.5-2.87    c3.686-10.987,3.841-9.388-2.99-18.479c11.587,0.112,10.107,0.768,16.653-8.553c3.475,11.056,2.409,9.852,13.282,13.196    C334.416,41.117,335.23,39.732,335.411,51.102z" fill="#FFFFFF"/>
	</g>
</g>
<g>
	<g>
		<path d="M226.016,200.725l-65.269-18.372c-6.907-1.944-14.162-1.083-20.425,2.427c-6.261,3.511-10.781,9.249-12.726,16.159    l-29.23,103.837c-4.538,16.123-3.077,32.064-0.063,39.561l-0.043,0.018v0.001c1.72,4.19,13.97,34.024,15.667,38.158l-18.27,64.901    l-10.648-2.998c-13.123-3.694-26.814,3.98-30.511,17.108c-3.703,13.159,3.947,26.805,17.107,30.511    c73.535,20.698,69.666,19.961,74.325,19.961c10.645,0,20.665-7.006,23.771-18.044c3.695-13.128-3.979-26.814-17.106-30.511    l-9.321-2.624l18.269-64.901l33.273-24.381l-0.045-0.061c2.944-2.023,6.175-5.923,8.344-8.788    c10.474-13.828,11.056-20.707,29.393-85.848c1.122-3.987-1.2-8.129-5.188-9.252s-8.129,1.199-9.252,5.187l-4.533,16.107    l-88.126-24.806l16.628-59.07c1.779-6.319,8.325-9.987,14.645-8.211l65.269,18.372c6.301,1.774,9.984,8.344,8.21,14.647    l-2.607,9.264c-1.122,3.987,1.2,8.129,5.188,9.251c3.989,1.122,8.129-1.2,9.253-5.188l2.607-9.265    C248.617,219.611,240.28,204.74,226.016,200.725z M127.48,469.674c0.973,1.735,2.596,3.013,4.51,3.552l16.542,4.655    c5.165,1.455,8.185,6.84,6.73,12.008c-1.456,5.175-6.824,8.188-12.005,6.731L75.67,477.597c-2.502-0.705-4.58-2.341-5.852-4.609    c-4.222-7.532,2.801-16.473,11.129-14.131c19.108,5.379,20.076,6.309,23.567,4.352c3.763-2.109,2.054,0.81,22.71-72.571    l18.736,5.274C125.323,469.226,125.368,465.906,127.48,469.674z M209.469,303.319c-15.804,56.14-10.651,46.685-55.219,79.343    l-27.186-7.652c-16.076-39.151-14.81-35.946-15.121-37.111c-4.363-16.347,1.007-29.568,9.401-59.387L209.469,303.319z" fill="#FFFFFF"/>
	</g>
</g>
<g>
</g>
<g>
</g>
<g>
</g>
<g>
</g>
<g>
</g>
<g>
</g>
<g>
</g>
<g>
</g>
<g>
</g>
<g>
</g>
<g>
</g>
<g>
</g>
<g>
</g>
<g>
</g>
<g>
</g>
</svg>
