<?xml version="1.0" encoding="utf-8"?>
<!-- Generator: Adobe Illustrator 22.0.1, SVG Export Plug-In . SVG Version: 6.00 Build 0)  -->
<svg version="1.1" id="Слой_1" xmlns="http://www.w3.org/2000/svg" xmlns:xlink="http://www.w3.org/1999/xlink" x="0px" y="0px"
	 width="753px" height="379px" viewBox="0 0 753 379" style="enable-background:new 0 0 753 379;" xml:space="preserve">
<style type="text/css">
	.st0{fill:#F9F9F9;}
	.st1{fill:#AFAFAF;}
	.st2{fill:#2A2A2B;}
	.st3{fill-rule:evenodd;clip-rule:evenodd;fill:#BF575A;}
</style>
<rect y="288" class="st0" width="750" height="90"/>
<rect y="287" class="st1" width="750" height="1"/>
<path class="st2" d="M245.6,353l-9.4-9.4c3-3.4,4.8-7.8,4.8-12.6c0-10.5-8.5-19-19-19s-19,8.5-19,19s8.5,19,19,19
	c4.9,0,9.4-1.9,12.8-5l9.4,9.4L245.6,353z M222,348c-9.4,0-17-7.6-17-17s7.6-17,17-17s17,7.6,17,17S231.4,348,222,348z"/>
<g>
	<path class="st2" d="M674.8,314.2c5.5,0,10,4.5,10,10c0,5.5-4.5,10-10,10c-5.5,0-10-4.5-10-10C664.8,318.7,669.3,314.2,674.8,314.2
		 M674.8,312.2c-6.6,0-12,5.4-12,12c0,6.6,5.4,12,12,12c6.6,0,12-5.4,12-12C686.8,317.6,681.4,312.2,674.8,312.2L674.8,312.2z"/>
	<path class="st2" d="M695.8,354.2c-0.6,0-1-0.4-1-1v-2.8c0-4.6-3.7-8.3-8.3-8.3h-23.5c-4.6,0-8.3,3.7-8.3,8.3l0,2.8
		c0,0.6-0.4,1-1,1c-0.6,0-1-0.4-1-1l0-2.8c0-5.7,4.6-10.3,10.3-10.3h23.5c5.7,0,10.3,4.6,10.3,10.3v2.8
		C696.8,353.8,696.4,354.2,695.8,354.2z"/>
</g>
<path class="st2" d="M534.9,316.2c1.8,0,3.5,0.5,5.1,1.5c5,3.1,6.8,10.1,3.8,15.6c-2.1,3.9-10.8,11.2-18.2,16.8
	c-0.1,0.1-0.3,0.1-0.3,0.1c-0.1,0-0.2,0-0.3-0.1c-7.4-5.5-16.1-12.9-18.2-16.8c-2.9-5.5-1.2-12.5,3.8-15.6c1.6-1,3.3-1.5,5.1-1.5
	c3.1,0,6.1,1.5,8,4.2l1.6,2.2l1.6-2.2C528.8,317.8,531.8,316.2,534.9,316.2 M534.9,314.2c-3.7,0-7.3,1.8-9.7,5c-2.4-3.2-6-5-9.7-5
	c-2.1,0-4.2,0.6-6.2,1.8c-5.9,3.7-7.9,11.9-4.5,18.3c2.8,5.2,14.6,14.3,18.8,17.4c0.5,0.3,1,0.5,1.5,0.5c0.5,0,1.1-0.2,1.5-0.5
	c4.3-3.2,16-12.2,18.8-17.4c3.4-6.4,1.4-14.6-4.5-18.3C539.1,314.8,537,314.2,534.9,314.2L534.9,314.2z"/>
<circle class="st3" cx="525.2" cy="366" r="4.1"/>
<path class="st2" d="M383.9,357h-17.8c-8.3,0-15.1-6.8-15.1-15.1v-17.8c0-8.3,6.8-15.1,15.1-15.1h17.8c8.3,0,15.1,6.8,15.1,15.1
	v17.8C399,350.2,392.2,357,383.9,357z M366.1,311c-7.2,0-13.1,5.9-13.1,13.1v17.8c0,7.2,5.9,13.1,13.1,13.1h17.8
	c7.2,0,13.1-5.9,13.1-13.1v-17.8c0-7.2-5.9-13.1-13.1-13.1H366.1z"/>
<polygon class="st2" points="386,332 376,332 376,322 374,322 374,332 364,332 364,334 374,334 374,344 376,344 376,334 386,334 "/>
<path class="st2" d="M75,312.7c-0.7,0-1.4,0.3-2,0.8l-18.5,18.6c-0.9,0.9-1.5,2.2-1.5,3.6v14.9c0,1.7,1.4,3,3,3H68c1.7,0,3-1.4,3-3
	v-9c0-2.2,1.8-4,4-4c2.2,0,4,1.8,4,4v9c0,1.7,1.4,3,3,3H94c1.7,0,3-1.4,3-3v-14.9c0-1.3-0.5-2.6-1.5-3.6L77,313.6
	C76.4,313,75.7,312.7,75,312.7"/>
<path class="st2" d="M62.5,20.9c2,0,3.9,0.6,5.7,1.7c5.6,3.6,7.5,11.6,4.2,17.9c-2.9,5.6-16,16-19.9,19c-0.2,0.1-0.4,0.2-0.5,0.2
	c-0.1,0-0.3,0-0.5-0.2c-3.9-3.1-17.1-13.4-19.9-19c-3.2-6.3-1.3-14.3,4.2-17.9c1.7-1.1,3.7-1.7,5.7-1.7c3.5,0,6.7,1.8,8.9,4.8L52,28
	l1.6-2.2C55.8,22.7,59.1,20.9,62.5,20.9 M62.5,18.8c-4,0-7.9,2-10.5,5.6c-2.6-3.6-6.5-5.6-10.5-5.6c-2.3,0-4.6,0.7-6.7,2
	c-6.5,4.2-8.7,13.4-4.9,20.7c3,5.9,15.9,16.1,20.5,19.7c0.5,0.4,1.1,0.6,1.7,0.6c0.6,0,1.2-0.2,1.7-0.6c4.6-3.6,17.5-13.8,20.5-19.7
	c3.7-7.2,1.5-16.5-4.9-20.7C67.1,19.5,64.8,18.8,62.5,18.8L62.5,18.8z"/>
<path class="st2" d="M132,21.3L132,21.3c1.7,0,3.5,0.2,5.2,0.7c6.5,1.7,11.5,6.9,13.1,13.4c1.1,4.6,0.7,9.2-1.4,13.3
	c-0.5,0.9-0.6,2-0.3,2.9l1.8,6.7l-6.4-1.7c-0.3-0.1-0.7-0.1-1.1-0.1c-0.7,0-1.4,0.2-2,0.5c-2.8,1.5-5.8,2.3-9,2.3
	c-1.6,0-3.1-0.2-4.7-0.6c-5.8-1.4-12.1-7.6-13.6-13.3c-1.5-5.9-0.3-12,3.3-16.7C120.6,24,126.1,21.3,132,21.3 M132,19.3
	c-13.4,0-23.8,12.6-20.2,26.6c1.7,6.5,8.6,13.2,15.1,14.8c1.8,0.4,3.5,0.6,5.2,0.6c3.6,0,7-0.9,9.9-2.5c0.3-0.2,0.7-0.3,1.1-0.3
	c0.2,0,0.4,0,0.5,0.1l8.8,2.4c0,0,0.1,0,0.1,0c0.3,0,0.6-0.3,0.5-0.7l-2.4-9.1c-0.1-0.5-0.1-1.1,0.2-1.5c2.1-4.3,2.8-9.4,1.5-14.7
	c-1.8-7.2-7.4-13-14.5-14.9C135.8,19.6,133.8,19.3,132,19.3L132,19.3z"/>
<g>
	<path class="st2" d="M211.6,63.3c-0.1,0-0.2,0-0.3,0c-0.6-0.1-1.1-0.6-1.2-1.2l-4.3-23.6l-17.4-14.8c-0.5-0.4-0.7-1.1-0.4-1.7
		c0.2-0.6,0.8-1,1.4-1h44.5c0.5,0,1,0.3,1.3,0.7c0.3,0.5,0.3,1,0,1.5l-22.3,39.3C212.7,63.1,212.2,63.3,211.6,63.3z M193.5,24
		l14.7,12.5c0.3,0.2,0.4,0.5,0.5,0.9l3.7,20.1L231.3,24H193.5z"/>
	<path class="st2" d="M207.2,39.2c-0.5,0-1-0.3-1.3-0.8c-0.4-0.7-0.2-1.6,0.6-2l26.7-15.2c0.7-0.4,1.6-0.2,2,0.6
		c0.4,0.7,0.2,1.6-0.6,2L208,39C207.7,39.1,207.5,39.2,207.2,39.2z"/>
</g>
<path class="st2" d="M719.6,61.3c-0.4,0-0.7-0.1-1-0.4l-14.6-12.8l-14.6,12.8c-0.4,0.4-1.1,0.5-1.6,0.2c-0.5-0.2-0.9-0.8-0.9-1.4
	V22.1c0-0.8,0.7-1.5,1.5-1.5h31.1c0.8,0,1.5,0.7,1.5,1.5v37.6c0,0.6-0.3,1.1-0.9,1.4C720,61.2,719.8,61.3,719.6,61.3z M704.1,44.6
	c0.4,0,0.7,0.1,1,0.4l13.1,11.4V23.6H690v32.8L703.1,45C703.4,44.7,703.7,44.6,704.1,44.6z"/>
</svg>
