<?xml version="1.0" encoding="utf-8"?>
<!-- Generator: Adobe Illustrator 22.0.1, SVG Export Plug-In . SVG Version: 6.00 Build 0)  -->
<svg version="1.1" id="Слой_1" xmlns="http://www.w3.org/2000/svg" xmlns:xlink="http://www.w3.org/1999/xlink" x="0px" y="0px"
	 viewBox="0 0 750.1 246.2" style="enable-background:new 0 0 750.1 246.2;" xml:space="preserve">
<style type="text/css">
	.st0{fill:#D9D9D9;}
	.st1{fill:#2A2A2B;}
	.st2{fill:#F9F9F9;}
	.st3{fill-rule:evenodd;clip-rule:evenodd;}
	.st4{opacity:0.5;fill:none;}
	.st5{fill:#AFAFAF;}
</style>
<rect x="-0.7" y="243.7" class="st0" width="750" height="1"/>
<g>
	<circle class="st1" cx="695" cy="191" r="3"/>
	<circle class="st1" cx="705.2" cy="191" r="3"/>
	<circle class="st1" cx="715.3" cy="191" r="3"/>
</g>
<rect x="0.4" y="-0.3" class="st2" width="748.9" height="128"/>
<g>
	<path class="st1" d="M282.9,60c-4.2,1.7-8.8,6.7-10.2,12.9c-1.8,7.8,5.8,11.2,6.4,10.1c0.7-1.3-1.4-1.7-1.8-5.8
		c-0.6-5.3,1.9-11.1,5-13.7c0.6-0.5,0.5,0.2,0.5,1.4c0,2.2-0.1,22-0.1,26.1c0,5.6-0.2,7.4-0.6,9.1c-0.4,1.8-1.1,3-0.6,3.4
		c0.6,0.5,3-0.7,4.4-2.7c1.7-2.4,2.3-5.2,2.4-8.3c0.1-3.7,0.1-9.6,0.1-13c0-3.1,0.1-12.1-0.1-17.6C288.3,60.7,284.6,59.3,282.9,60z"
		/>
	<path class="st1" d="M475.4,89.4c-0.6,0-0.9,0.6-1.1,1.7c-0.8,3.7-1.6,4.5-2.7,4.5c-1.2,0-2.3-1.8-2.6-5.4
		c-0.2-2.8-0.2-8.1,0.1-13.3c0.1-1.1-0.2-2.1-3.1-3.2c-1.2-0.5-3-1.1-3.9,1.1c-2.5,6.1-3.5,10.9-3.8,12.9c0,0.1-0.1,0.1-0.2-0.1
		c-0.1-1.6-0.5-4.4-0.5-10.5c0-1.2-0.3-2.2-1.6-3c-0.8-0.5-3.4-1.5-4.3-0.4c-0.8,0.9-1.7,3.4-2.7,6.3c-0.8,2.4-1.3,4-1.3,4
		s0-6.4,0-8.8c0-0.9-0.6-1.2-0.8-1.3c-0.9-0.2-2.5-0.7-3.2-0.7c-0.9,0-1.1,0.5-1.1,1.2c0,0.1-0.1,8.4-0.1,14.2c0,0.3,0,0.5,0,0.8
		c-0.5,2.7-2.1,6.3-3.8,6.3c-1.7,0-2.5-1.5-2.5-8.5c0-4,0.1-5.8,0.2-8.7c0-1.7,0.1-3,0.1-3.3c0-0.9-1.6-1.4-2.3-1.5
		c-0.7-0.2-1.4-0.2-1.9-0.2c-0.7,0-1.2,0.5-1.2,1.1c0,0.3,0,1,0,1c-0.9-1.4-2.4-2.4-3.3-2.7c-2.6-0.8-5.3-0.1-7.3,2.8
		c-1.6,2.3-2.6,4.8-3,8.5c-0.3,2.7-0.2,5.4,0.3,7.8c-0.6,2.6-1.7,3.7-3,3.7c-1.8,0-3.1-2.9-2.9-8c0.1-3.3,0.8-5.6,1.5-9
		c0.3-1.4,0.1-2.2-0.6-2.9c-0.6-0.7-1.8-1-3.6-0.6c-1.3,0.3-3.1,0.6-4.7,0.9c0,0,0.1-0.4,0.2-1.1c0.4-3.7-3.6-3.4-4.8-2.2
		c-0.8,0.7-1.3,1.5-1.5,3c-0.3,2.4,1.6,3.5,1.6,3.5c-0.6,2.9-2.2,6.7-3.8,9.4c-0.9,1.5-1.5,2.5-2.4,3.7c0-0.4,0-0.9,0-1.3
		c0-6.1,0.1-10.8,0.1-12.6c0-1.7,0.1-2.9,0.1-3.2c0-0.7-0.4-0.9-1.2-1.2c-0.7-0.3-1.5-0.5-2.4-0.5c-1.1-0.1-1.8,0.5-1.7,1.2
		c0,0.1,0,0.9,0,0.9c-0.9-1.4-2.4-2.4-3.3-2.7c-2.6-0.8-5.3-0.1-7.3,2.8c-1.6,2.3-2.7,5.5-3,8.5c-0.3,2.8-0.2,5.3,0.2,7.3
		c-0.4,2-1.6,4.2-2.9,4.2c-1.7,0-2.7-1.5-2.7-8.5c0-4,0.1-5.8,0.2-8.7c0-1.7,0.1-3,0.1-3.3c0-0.9-1.6-1.4-2.3-1.5
		c-0.8-0.2-1.4-0.2-1.9-0.2c-0.7,0.1-1.1,0.6-1.1,1.1c0,0.4,0,1,0,1c-0.9-1.4-2.4-2.4-3.3-2.7c-2.6-0.8-5.3-0.1-7.4,2.8
		c-1.3,1.9-2.4,3.9-3,8.5c-0.2,1.3-0.2,2.6-0.2,3.7c-0.5,3.3-2.9,7-4.8,7c-1.1,0-2.2-2.2-2.2-6.9c0-6.2,0.4-15.1,0.4-16
		c0,0,2.4,0,2.9,0c1.2,0,2.3,0,3.9-0.1c0.8,0,1.6-3,0.8-3.3c-0.4-0.2-3.1-0.3-4.1-0.3c-0.9,0-3.4-0.2-3.4-0.2s0.2-5.9,0.3-6.5
		c0-0.5-0.6-0.8-1-0.9c-0.9-0.4-1.8-0.6-2.8-0.8c-1.4-0.3-2,0-2.1,1.2c-0.2,1.8-0.3,6.9-0.3,6.9c-1,0-4.4-0.2-5.4-0.2
		c-0.9,0-1.9,4-0.7,4.1c1.5,0.1,4.1,0.1,5.8,0.2c0,0-0.1,9-0.1,11.8c0,0.3,0,0.6,0,0.9c-0.9,4.9-4.3,7.6-4.3,7.6
		c0.7-3.3-0.7-5.7-3.4-7.8c-1-0.8-2.9-2.2-5-3.8c0,0,1.2-1.2,2.3-3.7c0.8-1.7,0.8-3.7-1.1-4.2c-3.2-0.7-5.8,1.6-6.5,4.1
		c-0.6,1.9-0.3,3.3,0.9,4.8c0.1,0.1,0.2,0.2,0.3,0.3c-0.7,1.4-1.7,3.2-2.5,4.7c-2.3,4-4,7.1-5.4,7.1c-1.1,0-1-3.2-1-6.2
		c0-2.6,0.2-6.5,0.3-10.5c0.1-1.3-0.6-2.1-1.7-2.8c-0.7-0.4-2.1-1.2-3-1.2c-1.3,0-4.9,0.2-8.3,10.1c-0.4,1.2-1.3,3.5-1.3,3.5
		l0.1-11.9c0-0.3-0.1-0.5-0.5-0.7c-0.6-0.3-2.1-1-3.5-1c-0.7,0-1,0.3-1,0.9l-0.1,18.6c0,1.4,0,3.1,0.2,3.8c0.1,0.7,0.4,1.3,0.6,1.7
		c0.3,0.3,0.6,0.6,1.1,0.7c0.5,0.1,3.2,0.5,3.3-0.6c0.2-1.2,0.2-2.6,1.6-7.6c2.2-7.8,5.1-11.6,6.5-13c0.2-0.2,0.5-0.2,0.5,0.1
		c-0.1,1.7-0.3,6-0.4,9.6c-0.4,9.7,1.4,11.5,3.9,11.5c1.9,0,4.7-1.9,7.6-6.8c1.8-3,3.6-6,4.9-8.1c0.9,0.8,1.9,1.7,2.9,2.6
		c2.3,2.2,3.1,4.3,2.6,6.2c-0.4,1.5-1.8,3.1-4.4,1.6c-0.8-0.4-1.1-0.8-1.8-1.3c-0.4-0.3-1-0.3-1.4-0.1c-1,0.7-1.5,1.7-1.8,2.8
		c-0.3,1.1,0.8,1.7,2,2.2c1,0.4,3.1,0.8,4.5,0.9c5.3,0.2,9.6-2.6,12.5-9.6c0.5,6.1,2.8,9.6,6.7,9.6c2.6,0,5.3-3.4,6.4-6.7
		c0.3,1.4,0.8,2.5,1.5,3.5c3,4.8,8.9,3.8,11.8-0.3c0.9-1.3,1-1.7,1-1.7c0.4,3.8,3.5,5.2,5.3,5.2c2,0,4-0.9,5.5-4.2
		c0.2,0.4,0.4,0.7,0.6,1c3,4.8,8.9,3.8,11.8-0.3c0.1-0.2,0.3-0.4,0.4-0.5l0.1,2.5c0,0-1.7,1.5-2.7,2.5c-4.5,4.2-8,7.3-8.3,11
		c-0.3,4.7,3.5,6.4,6.4,6.7c3.1,0.2,5.7-1.4,7.3-3.8c1.4-2.1,2.3-6.6,2.3-11c0-1.8-0.1-4-0.1-6.4c1.6-1.9,3.4-4.2,5-6.9
		c1.8-3,3.7-7,4.7-10.1c0,0,1.7,0,3.5-0.1c0.6,0,0.7,0.1,0.6,0.5c-0.1,0.5-2.3,8.7-0.3,14.2c1.3,3.8,4.3,5,6.1,5
		c2.1,0,4.1-1.6,5.2-3.9c0.1,0.3,0.3,0.5,0.4,0.7c3,4.8,8.9,3.8,11.8-0.3c0.7-0.9,1-1.7,1-1.7c0.6,4,3.7,5.2,5.5,5.2
		c1.8,0,3.6-0.8,5-4.1c0.1,1.5,0.2,2.7,0.3,3.1c0.1,0.2,0.6,0.5,1,0.7c1.7,0.6,3.4,0.3,4,0.2c0.4-0.1,0.8-0.4,0.8-1.4
		c0.1-2.4,0-6.4,0.8-9.4c1.2-5,2.4-7,2.9-7.9c0.3-0.5,0.6-0.6,0.7-0.1c0,1.2,0.1,4.6,0.6,9.1c0.3,3.4,0.8,5.3,1.2,6
		c1,1.8,2.3,1.9,3.3,1.9c0.7,0,2-0.2,1.9-1.3c-0.1-0.6,0-4,1.2-9c0.8-3.2,2.1-6.2,2.6-7.2c0.2-0.4,0.3-0.1,0.3,0
		c-0.1,2.2-0.3,9.5,0.6,13.5c1.2,5.4,4.8,6,6,6c2.6,0,4.8-2,5.5-7.3C476.4,90.4,476.1,89.4,475.4,89.4z M364.5,86.1
		c-0.2,2.8-0.7,5.1-1.6,6.9c-1.6,3.1-4.7,4.1-6.1-0.4c-1-3.2-0.7-7.6-0.2-10c0.6-3.5,2.2-6,4.6-5.8
		C363.6,77.1,364.8,80.3,364.5,86.1z M388.7,86.2c-0.1,2.6-0.8,5.3-1.6,6.8c-1.5,3.1-4.8,4.1-6.1-0.4c-0.9-3.1-0.7-7-0.2-9.5
		c0.6-3.2,2-6.2,4.6-6.2C387.8,76.9,389,79.6,388.7,86.2z M389.3,104.2c0,4.8-0.8,9.1-2.4,10.3c-2.3,1.7-5.4,0.4-4.8-3.1
		c0.6-3.1,3.3-6.3,7.2-10.2C389.3,101.2,389.3,102.1,389.3,104.2z M431.1,86.2c-0.1,2.9-0.8,5.2-1.6,6.8c-1.5,3.1-4.8,4.1-6.1-0.4
		c-0.7-2.4-0.8-6.5-0.2-9.9c0.5-3.5,2.1-6.1,4.6-5.8C430.2,77.1,431.3,80.3,431.1,86.2z"/>
</g>
<path id="Battery_Icon_-_100_x25__14_" class="st3" d="M738.8,20.7c0,1.9-1.1,3.5-3,3.5v-7C737.8,17.2,738.8,18.7,738.8,20.7z
	 M734.8,14.2v13v0c0,1.7-1.3,3-3,3h-39c-1.7,0-3-1.3-3-3v0v-13c0-1.7,1.3-3,3-3h39C733.5,11.2,734.8,12.5,734.8,14.2z M692.8,12.2
	c-1.1,0-2,0.9-2,2v13c0,1.1,0.9,2,2,2h39c1.1,0,2-0.9,2-2v-13c0-1.1-0.9-2-2-2H692.8z M691.8,14.2v13c0,0.6,0.4,1,1,1h39
	c0.6,0,1-0.4,1-1v-13c0-0.6-0.4-1-1-1h-39C692.3,13.2,691.8,13.6,691.8,14.2z"/>
<g id="Wi-Fi_Icon_Group_17_">
	<rect id="Status_Bar_Icon_Frame_48_" x="89.4" y="6" class="st4" width="28" height="28"/>
	<path id="Wi-Fi_Icon_24_" d="M102.9,11c4.2,0,8.5,1.7,12,4.7l-1.6,1.8c-2.9-2.5-6.6-3.8-10.4-3.8c-3.8,0-7.5,1.3-10.4,3.8l-1.6-1.8
		C94.5,12.7,98.7,11,102.9,11z M102.9,17.2c2.8,0,5.7,1,8,3l-1.7,1.9c-1.8-1.4-4-2.2-6.2-2.2c-2.3,0-4.5,0.8-6.2,2.2L95,20.2
		C97.3,18.3,100.1,17.2,102.9,17.2z M102.9,23.3c1.3,0,2.7,0.5,3.8,1.4l-3.8,4.3l-3.8-4.3C100.2,23.8,101.6,23.3,102.9,23.3z"/>
</g>
<path id="Cell_Signal_Indicator_-_5_Bars_10_" class="st3" d="M17.8,15.2c3,0,5.5,2.5,5.5,5.5s-2.5,5.5-5.5,5.5
	c-3,0-5.5-2.5-5.5-5.5S14.8,15.2,17.8,15.2z M73.8,15.2c-3,0-5.5,2.5-5.5,5.5s2.5,5.5,5.5,5.5c3,0,5.5-2.5,5.5-5.5
	S76.9,15.2,73.8,15.2L73.8,15.2z M59.8,15.2c-3,0-5.5,2.5-5.5,5.5s2.5,5.5,5.5,5.5c3,0,5.5-2.5,5.5-5.5S62.9,15.2,59.8,15.2
	L59.8,15.2z M45.8,15.2c-3,0-5.5,2.5-5.5,5.5s2.5,5.5,5.5,5.5c3,0,5.5-2.5,5.5-5.5S48.9,15.2,45.8,15.2L45.8,15.2z M31.8,15.2
	c-3,0-5.5,2.5-5.5,5.5s2.5,5.5,5.5,5.5c3,0,5.5-2.5,5.5-5.5S34.9,15.2,31.8,15.2L31.8,15.2z"/>
<rect x="-0.2" y="127.7" class="st5" width="750" height="1"/>
<g>
	<path class="st1" d="M51,64.7c1,0,1.9,0.4,2.6,1.1l2.1,2.1c1.8,1.8,4.3,2.8,6.9,2.8h0.8c3.3,0,6,2.7,6,6l0,20
		c0,1.6-0.6,3.1-1.8,4.2c-1.1,1.1-2.6,1.8-4.2,1.8h-32c-3.3,0-6-2.7-6-6l0-20c0-1.6,0.6-3.1,1.8-4.2c1.1-1.1,2.6-1.8,4.2-1.8h0.8
		c2.6,0,5-1,6.9-2.8l2.1-2.1c0.7-0.7,1.6-1.1,2.6-1.1H51 M51,62.7h-7.3c-1.5,0-2.9,0.6-4,1.7l-2.1,2.1c-1.4,1.4-3.4,2.3-5.4,2.3
		h-0.8c-4.4,0-8,3.6-8,8l0,20c0,4.4,3.6,8,8,8h32c4.4,0,8-3.6,8-8l0-20c0-4.4-3.6-8-8-8h-0.8c-2,0-4-0.8-5.4-2.3L55,64.3
		C53.9,63.3,52.5,62.7,51,62.7L51,62.7z"/>
	<path class="st1" d="M47.3,75.7c5.5,0,10,4.5,10,10s-4.5,10-10,10c-5.5,0-10-4.5-10-10S41.8,75.7,47.3,75.7 M47.3,73.7
		c-6.6,0-12,5.4-12,12s5.4,12,12,12c6.6,0,12-5.4,12-12S54,73.7,47.3,73.7L47.3,73.7z"/>
</g>
<g>
	<path class="st1" d="M701.7,105.7c-0.1,0-0.2,0-0.2,0c-0.6-0.1-1.1-0.6-1.2-1.1l-4.1-22.4l-16.5-14.1c-0.5-0.4-0.6-1-0.4-1.6
		c0.2-0.6,0.7-0.9,1.3-0.9h42.2c0.5,0,1,0.3,1.2,0.7c0.3,0.4,0.3,1,0,1.4L702.9,105C702.7,105.5,702.2,105.7,701.7,105.7z
		 M684.4,68.4l14,11.9c0.3,0.2,0.4,0.5,0.5,0.8l3.5,19.1l18-31.8H684.4z"/>
	<path class="st1" d="M697.5,82.8c-0.5,0-1-0.3-1.2-0.7c-0.4-0.7-0.2-1.6,0.5-1.9l25.3-14.4c0.7-0.4,1.6-0.2,1.9,0.5
		c0.4,0.7,0.2,1.6-0.5,1.9l-25.3,14.4C698,82.7,697.7,82.8,697.5,82.8z"/>
</g>
</svg>
